<svg width="1440" height="635" viewBox="0 0 1440 635" fill="none" xmlns="http://www.w3.org/2000/svg">
<g clip-path="url(#clip0_89_301)">
<path d="M-27.0409 599.055C-10.3964 593.489 258.633 325.827 314.55 414.569C327.056 434.417 296.133 463.763 259.733 497.087C160.496 587.938 266.685 734.291 383.95 668.332C405.354 656.292 425.788 639.949 445.644 620.217C472.147 593.881 486.575 555.251 497.104 539.559C529.078 491.903 513.092 511.559 541.14 475.69C568.677 440.475 587.345 411.164 620.196 392.931C647.022 378.042 654.661 403.366 663.034 423.505C676.902 456.864 690.375 489.273 712.325 518.436C728.292 539.65 754.1 568.257 784.618 565.146C825.942 560.933 863.92 514.451 889.533 488.282C925.263 451.776 953.123 416.658 995.299 386.729C1040.83 354.423 1069.89 343.571 1124.31 335.582C1143.24 332.803 1162.52 333.14 1181.65 333.139C1192.88 333.139 1230.6 338.201 1245.47 334.172C1275.58 326.012 1303.23 289.269 1322.71 268.542C1372.73 215.309 1420.76 160.167 1470.34 106.579" stroke="#7B7AFF" stroke-width="109" stroke-linecap="round"/>
</g>
<defs>
<clipPath id="clip0_89_301">
<rect width="1440" height="635" fill="white"/>
</clipPath>
</defs>
</svg>
