<svg width="1440" height="162" viewBox="0 0 1440 162" fill="none" xmlns="http://www.w3.org/2000/svg">
<g clip-path="url(#clip0_76_410)">
<path d="M321.473 304.055C338.118 298.489 607.147 30.8269 663.064 119.569C675.57 139.417 644.647 168.763 608.247 202.087C509.011 292.938 615.199 439.291 732.464 373.332C753.868 361.292 774.302 344.949 794.158 325.217C820.662 298.881 835.089 260.251 845.618 244.559C877.593 196.903 861.606 216.559 889.654 180.69C917.191 145.475 935.859 116.164 968.71 97.9312C995.536 83.0421 1003.18 108.366 1011.55 128.505C1025.42 161.864 1038.89 194.273 1060.84 223.436C1076.81 244.65 1102.61 273.257 1133.13 270.146C1174.46 265.933 1212.43 219.451 1238.05 193.282C1273.78 156.776 1301.64 121.658 1343.81 91.7291C1389.34 59.4225 1418.4 48.5713 1472.82 40.5818C1491.75 37.8031 1511.04 38.1399 1530.17 38.1392C1541.4 38.1388 1579.11 43.201 1593.98 39.172C1624.1 31.0119 1651.75 -5.73096 1671.22 -26.4576C1721.24 -79.6908 1769.27 -134.833 1818.85 -188.421" stroke="#8F8EFF" stroke-width="109" stroke-linecap="round"/>
</g>
<defs>
<clipPath id="clip0_76_410">
<rect width="1440" height="162" fill="white"/>
</clipPath>
</defs>
</svg>
