<svg width="25" height="24" viewBox="0 0 25 24" fill="none" xmlns="http://www.w3.org/2000/svg">
<path d="M12.54 2.00005C7.07999 2.00005 2.62999 6.45005 2.62999 11.9101C2.62999 13.6601 3.08999 15.3601 3.94999 16.8601L2.54999 22.0001L7.79999 20.6201C9.24999 21.4101 10.88 21.8301 12.54 21.8301C18 21.8301 22.45 17.3801 22.45 11.9201C22.45 9.27005 21.42 6.78005 19.55 4.91005C18.6331 3.98416 17.541 3.25002 16.3375 2.75042C15.134 2.25081 13.8431 1.99574 12.54 2.00005ZM12.55 3.67005C14.75 3.67005 16.81 4.53005 18.37 6.09005C19.1354 6.85557 19.7422 7.76457 20.1558 8.76497C20.5693 9.76538 20.7814 10.8375 20.78 11.9201C20.78 16.4601 17.08 20.1501 12.54 20.1501C11.06 20.1501 9.60999 19.7601 8.34999 19.0001L8.04999 18.8301L4.92999 19.6501L5.75999 16.6101L5.55999 16.2901C4.73453 14.9785 4.29766 13.4598 4.29999 11.9101C4.30999 7.37005 7.99999 3.67005 12.55 3.67005ZM9.02999 7.33005C8.86999 7.33005 8.59999 7.39005 8.36999 7.64005C8.14999 7.89005 7.49999 8.50005 7.49999 9.71005C7.49999 10.9301 8.38999 12.1001 8.49999 12.2701C8.63999 12.4401 10.26 14.9401 12.75 16.0001C13.34 16.2701 13.8 16.4201 14.16 16.5301C14.75 16.7201 15.29 16.6901 15.72 16.6301C16.2 16.5601 17.18 16.0301 17.39 15.4501C17.6 14.8701 17.6 14.3801 17.54 14.2701C17.47 14.1701 17.31 14.1101 17.06 14.0001C16.81 13.8601 15.59 13.2601 15.37 13.1801C15.14 13.1001 15 13.0601 14.81 13.3001C14.65 13.5501 14.17 14.1101 14.03 14.2701C13.88 14.4401 13.74 14.4601 13.5 14.3401C13.24 14.2101 12.44 13.9501 11.5 13.1101C10.76 12.4501 10.27 11.6401 10.12 11.3901C9.99999 11.1501 10.11 11.0001 10.23 10.8901C10.34 10.7801 10.5 10.6001 10.6 10.4501C10.73 10.3101 10.77 10.2001 10.85 10.0401C10.93 9.87005 10.89 9.73005 10.83 9.61005C10.77 9.50005 10.27 8.26005 10.06 7.77005C9.85999 7.29005 9.65999 7.35005 9.49999 7.34005C9.35999 7.34005 9.19999 7.33005 9.02999 7.33005Z" fill="white"/>
</svg>
