<svg width="1440" height="726" viewBox="0 0 1440 726" fill="none" xmlns="http://www.w3.org/2000/svg">
<g clip-path="url(#clip0_103_301)">
<path d="M-29.0409 575.055C-12.3964 569.489 256.633 301.827 312.55 390.569C325.056 410.417 294.133 439.763 257.733 473.087C158.496 563.938 264.685 710.291 381.95 644.332C403.354 632.292 423.788 615.949 443.644 596.217C470.147 569.881 484.575 531.251 495.104 515.559C527.078 467.903 511.092 487.559 539.14 451.69C566.677 416.475 585.345 387.164 618.196 368.931C645.022 354.042 652.661 379.366 661.034 399.505C674.902 432.864 688.375 465.273 710.325 494.436C726.292 515.65 752.1 544.257 782.618 541.146C823.942 536.933 861.92 490.451 887.533 464.282C923.263 427.776 951.123 392.658 993.299 362.729C1038.83 330.423 1067.89 319.571 1122.31 311.582C1141.24 308.803 1160.52 309.14 1179.65 309.139C1190.88 309.139 1228.6 314.201 1243.47 310.172C1273.58 302.012 1301.23 265.269 1320.71 244.542C1370.73 191.309 1418.76 136.167 1468.34 82.5791" stroke="#F88026" stroke-width="109" stroke-linecap="round"/>
</g>
<defs>
<clipPath id="clip0_103_301">
<rect width="1440" height="726" fill="white"/>
</clipPath>
</defs>
</svg>
